<svg width="24" height="31" viewBox="0 0 24 31" fill="none" xmlns="http://www.w3.org/2000/svg">
<path d="M13.8896 0.924936C13.8896 1.43371 13.4734 1.84987 12.9647 1.84987H7.51814C7.01166 1.84987 6.59666 1.43371 6.59666 0.924936C6.59666 0.418449 7.01283 0 7.51814 0H12.9682C13.4747 0 13.8896 0.418449 13.8896 0.924936ZM11.0337 2.78049V4.11243H11.9083C12.1129 4.11243 12.2799 4.27935 12.2799 4.48399V5.07278L8.2063 5.07164V4.48285C8.2063 4.2782 8.37322 4.11129 8.57786 4.11129H9.45248V2.78049L11.0337 2.78049ZM4.74685 7.44614H5.93245V11.1275H4.74685V7.44614ZM17.4352 12.0764C16.8533 11.491 16.0484 11.1309 15.1669 11.1309H14.5518V7.446H15.1669C17.066 7.446 18.7901 8.22114 20.0395 9.47192C21.2891 10.7204 22.0677 12.4479 22.0677 14.3445V14.3799L18.3829 14.3788V14.3434C18.3829 13.463 18.0206 12.6583 17.4352 12.0764ZM3.8129 4.00946V14.5665C3.8129 14.889 3.54994 15.1519 3.22753 15.1519H0.581941C0.259522 15.1519 0 14.8889 0 14.5665V4.00946C0 3.68704 0.260672 3.4241 0.581941 3.4241H3.22753C3.54995 3.4241 3.8129 3.6882 3.8129 4.00946ZM13.6154 6.60246V11.9703C13.6154 12.2984 13.3456 12.5671 13.0186 12.5671L7.46555 12.5682C7.13742 12.5682 6.86874 12.2984 6.86874 11.9714V6.60243C6.86874 6.2743 7.13856 6.00562 7.46555 6.00562H13.0174C13.349 6.00562 13.6154 6.27547 13.6154 6.60246ZM23.6477 15.7728V16.8761C23.6477 17.1276 23.4431 17.3322 23.1915 17.3322H17.2589C17.0073 17.3322 16.8027 17.1276 16.8027 16.8761V15.7728C16.8027 15.5213 17.0073 15.3166 17.2589 15.3166H23.1915C23.4408 15.3155 23.6477 15.5213 23.6477 15.7728ZM18.2925 20.9439C18.0353 20.9439 17.8272 20.7358 17.8272 20.4786V18.7454C17.8272 18.4881 18.0353 18.2801 18.2925 18.2801C18.5497 18.2801 18.7613 18.4881 18.7613 18.7454V20.4786C18.7601 20.737 18.5498 20.9439 18.2925 20.9439ZM22.1556 20.9439C21.8984 20.9439 21.6903 20.7358 21.6903 20.4786V18.7454C21.6903 18.4881 21.9007 18.2801 22.1556 18.2801C22.4129 18.2801 22.6244 18.4881 22.6244 18.7454V20.4786C22.6267 20.737 22.4163 20.9439 22.1556 20.9439ZM20.2234 21.4161C19.9662 21.4161 19.7581 21.208 19.7581 20.9508V19.2176C19.7581 18.9603 19.9685 18.7522 20.2234 18.7522C20.4807 18.7522 20.6922 18.9603 20.6922 19.2176V20.9508C20.6922 21.208 20.4807 21.4161 20.2234 21.4161Z" fill="#F2F4F7"/>
<g clip-path="url(#clip0_5973_55555)">
<path d="M22.1708 22.8293H18.5123C17.502 22.8293 16.683 23.6483 16.683 24.6586V28.3171C16.683 29.3274 17.502 30.1464 18.5123 30.1464H22.1708C23.1811 30.1464 24.0001 29.3274 24.0001 28.3171V24.6586C24.0001 23.6483 23.1811 22.8293 22.1708 22.8293Z" fill="#4170F5"/>
<path d="M20.3436 24.3541L19.9555 24.9917L21.3566 27.3634L20.2199 28.6224C20.2199 28.6224 21.1133 28.6172 21.108 28.6224C21.1028 28.6276 22.1707 27.4366 22.1707 27.4366L20.3436 24.3541ZM19.8339 25.2269L18.5122 27.4471L19.5537 28.6224H19.9454L20.518 27.9641H19.8818L19.3208 27.3478L20.2195 25.8381L19.8339 25.2269Z" fill="white"/>
</g>
<defs>
<clipPath id="clip0_5973_55555">
<rect x="16.683" y="22.8293" width="7.31707" height="7.31707" rx="3.65854" fill="white"/>
</clipPath>
</defs>
</svg>
