<svg width="21" height="21" viewBox="0 0 21 21" fill="none" xmlns="http://www.w3.org/2000/svg">
<path d="M10.7468 0.5C5.0849 0.5 0.493652 5.09039 0.493652 10.7532C0.493652 15.2833 3.4315 19.1266 7.5054 20.4824C8.01782 20.5773 8.20594 20.26 8.20594 19.9891C8.20594 19.7446 8.19644 18.937 8.19202 18.0802C5.33958 18.7005 4.73768 16.8705 4.73768 16.8705C4.27127 15.6853 3.59925 15.3702 3.59925 15.3702C2.66898 14.7339 3.66937 14.7469 3.66937 14.7469C4.69897 14.8193 5.2411 15.8035 5.2411 15.8035C6.15558 17.371 7.6397 16.9178 8.22479 16.6559C8.31682 15.9932 8.58253 15.5409 8.87576 15.2848C6.59839 15.0256 4.20437 14.1464 4.20437 10.2177C4.20437 9.09825 4.60491 8.1836 5.2608 7.46556C5.15434 7.20731 4.80339 6.16447 5.36012 4.75218C5.36012 4.75218 6.22112 4.47661 8.18048 5.80317C8.99835 5.57599 9.87547 5.46206 10.7468 5.45816C11.6182 5.46206 12.496 5.57599 13.3154 5.80317C15.2724 4.47661 16.1322 4.75218 16.1322 4.75218C16.6903 6.16447 16.3391 7.20731 16.2327 7.46556C16.8901 8.1836 17.2879 9.09825 17.2879 10.2177C17.2879 14.1557 14.8893 15.0228 12.6062 15.2767C12.9739 15.5949 13.3016 16.2188 13.3016 17.1754C13.3016 18.5473 13.2897 19.6514 13.2897 19.9891C13.2897 20.262 13.4743 20.5817 13.994 20.481C18.0657 19.1237 20.9998 15.2818 20.9998 10.7532C20.9998 5.09039 16.4093 0.5 10.7468 0.5ZM4.3338 15.1059C4.31122 15.1568 4.23108 15.1721 4.15807 15.1371C4.0837 15.1037 4.04193 15.0342 4.06604 14.9831C4.08812 14.9306 4.16843 14.916 4.24262 14.9512C4.31716 14.9846 4.35961 15.0548 4.3338 15.1059ZM4.83814 15.5559C4.78924 15.6012 4.69365 15.5802 4.62879 15.5085C4.56173 15.437 4.54916 15.3414 4.59874 15.2954C4.64917 15.2501 4.74187 15.2713 4.80911 15.3428C4.87617 15.4151 4.88925 15.51 4.83814 15.5559ZM5.18414 16.1317C5.12132 16.1753 5.0186 16.1344 4.95509 16.0432C4.89227 15.952 4.89227 15.8427 4.95645 15.7989C5.02012 15.7551 5.12132 15.7945 5.18567 15.885C5.24832 15.9777 5.24832 16.087 5.18414 16.1317ZM5.7693 16.7985C5.7131 16.8605 5.59339 16.8438 5.50578 16.7593C5.41614 16.6766 5.39118 16.5593 5.44755 16.4973C5.50443 16.4352 5.62481 16.4526 5.7131 16.5365C5.80206 16.619 5.82923 16.7372 5.7693 16.7985ZM6.52555 17.0236C6.50076 17.1039 6.38548 17.1404 6.26934 17.1063C6.15338 17.0712 6.07748 16.9771 6.10091 16.8959C6.12502 16.8151 6.24082 16.7771 6.3578 16.8136C6.4736 16.8486 6.54966 16.9419 6.52555 17.0236ZM7.38621 17.1191C7.38909 17.2037 7.29062 17.2738 7.16871 17.2753C7.04612 17.278 6.94696 17.2096 6.94561 17.1264C6.94561 17.041 7.04188 16.9716 7.16446 16.9695C7.28637 16.9671 7.38621 17.0351 7.38621 17.1191ZM8.2317 17.0867C8.2463 17.1692 8.16158 17.2539 8.04052 17.2765C7.9215 17.2982 7.81131 17.2473 7.7962 17.1655C7.78142 17.0809 7.86768 16.9962 7.98653 16.9743C8.10776 16.9532 8.21625 17.0028 8.2317 17.0867Z" fill="#D0D5DD"/>
</svg>
